<svg xmlns="http://www.w3.org/2000/svg" data-name="Layer 1" viewBox="0 0 32 40" x="0px" y="0px"><title>Address</title><path d="M16,13a3,3,0,1,1,3-3A3,3,0,0,1,16,13Zm0-4a1,1,0,1,0,1,1A1,1,0,0,0,16,9Zm0,16a1,1,0,0,1-.71-.29C15,24.37,7,16.34,7,10a9,9,0,0,1,18,0c0,6.34-8,14.37-8.29,14.71A1,1,0,0,1,16,25ZM16,3a7,7,0,0,0-7,7c0,4.51,5.09,10.47,7,12.55,1.91-2.07,7-8,7-12.55A7,7,0,0,0,16,3Zm0,28c-2.49,0-5-.77-5-2.5S13.51,26,16,26s5,.77,5,2.5S18.49,31,16,31Zm-2.77-2.5A6.64,6.64,0,0,0,16,29a6.64,6.64,0,0,0,2.77-.5A6.64,6.64,0,0,0,16,28,6.64,6.64,0,0,0,13.23,28.5Zm5.82.19h0Z"/></svg>