<svg xmlns="http://www.w3.org/2000/svg" data-name="Layer 1" viewBox="0 0 64 80" x="0px" y="0px"><title>flat-tire-pressure-car-accident-fix</title><path d="M32,35a3,3,0,1,0-3-3A3,3,0,0,0,32,35Zm0-4a1,1,0,1,1-1,1A1,1,0,0,1,32,31Z"/><path d="M7,54.5A3.5,3.5,0,0,0,10.5,58h42a3.5,3.5,0,0,0,2.108-6.292A30,30,0,1,0,2,32,29.834,29.834,0,0,0,9.053,51.313,3.506,3.506,0,0,0,7,54.5Zm1.494-7.294,2.061-1.374-1.11-1.664L7.468,45.486A27.834,27.834,0,0,1,4.024,33H7V31H4.025A27.819,27.819,0,0,1,7.47,18.515l1.975,1.317,1.11-1.664L8.5,16.8a28.235,28.235,0,0,1,8.3-8.3l1.368,2.052,1.664-1.11L18.515,7.47A27.819,27.819,0,0,1,31,4.025V6h2V4.025A27.819,27.819,0,0,1,45.485,7.47L44.168,9.445l1.664,1.11L47.2,8.5a28.235,28.235,0,0,1,8.3,8.3l-2.052,1.368,1.11,1.664,1.975-1.317A27.819,27.819,0,0,1,59.975,31H57v2h2.977a27.833,27.833,0,0,1-3.442,12.488l-1.98-1.32-1.11,1.664L55.5,47.2A28.127,28.127,0,0,1,52.556,51H46v2h6.5a1.454,1.454,0,0,1,.266.029l.078.011A1.5,1.5,0,0,1,52.5,56H18.868l.964-1.445-1.664-1.11L16.465,56H10.5a1.5,1.5,0,0,1,0-3H14V51H11.453A28.2,28.2,0,0,1,8.494,47.206Z"/><path d="M32,53A21,21,0,1,0,11,32,21.024,21.024,0,0,0,32,53Zm-4-2.432a18.878,18.878,0,0,1-6.442-2.712l4.373-4.373A12.921,12.921,0,0,0,28,44.357Zm8,0V44.357a12.921,12.921,0,0,0,2.069-.874l4.373,4.373A18.878,18.878,0,0,1,36,50.568Zm11.856-8.126-4.373-4.373A12.831,12.831,0,0,0,44.357,36h6.211A18.878,18.878,0,0,1,47.856,42.442ZM50.568,28H44.357a12.755,12.755,0,0,0-.874-2.069l4.373-4.373A18.878,18.878,0,0,1,50.568,28ZM36,13.432a18.878,18.878,0,0,1,6.442,2.712l-4.373,4.373A12.921,12.921,0,0,0,36,19.643Zm-8,0v6.211a12.921,12.921,0,0,0-2.069.874l-4.373-4.373A18.878,18.878,0,0,1,28,13.432ZM19.926,17.34l5.13,5.13a1,1,0,0,0,1.228.146,10.887,10.887,0,0,1,2.965-1.254A1,1,0,0,0,30,20.394V13.107a18.745,18.745,0,0,1,4,0v7.286a1,1,0,0,0,.75.968,10.931,10.931,0,0,1,2.966,1.255,1,1,0,0,0,1.228-.146l5.13-5.13a19.266,19.266,0,0,1,2.586,2.586l-5.13,5.13a1,1,0,0,0-.146,1.228,10.9,10.9,0,0,1,1.254,2.966,1,1,0,0,0,.968.75h7.287a18.745,18.745,0,0,1,0,4H43.606a1,1,0,0,0-.968.75,10.929,10.929,0,0,1-1.254,2.966,1,1,0,0,0,.146,1.228l5.13,5.13a19.266,19.266,0,0,1-2.586,2.586l-5.13-5.13a1,1,0,0,0-1.228-.146,10.887,10.887,0,0,1-2.965,1.254,1,1,0,0,0-.751.968v7.287a18.745,18.745,0,0,1-4,0V43.606a1,1,0,0,0-.751-.968,10.887,10.887,0,0,1-2.965-1.254,1,1,0,0,0-1.228.146l-5.13,5.13a19.266,19.266,0,0,1-2.586-2.586l5.13-5.13a1,1,0,0,0,.146-1.228,10.929,10.929,0,0,1-1.254-2.966,1,1,0,0,0-.968-.75H13.107a18.745,18.745,0,0,1,0-4h7.287a1,1,0,0,0,.968-.75,10.9,10.9,0,0,1,1.254-2.966,1,1,0,0,0-.146-1.228l-5.13-5.13A19.266,19.266,0,0,1,19.926,17.34Zm-3.782,25.1A18.878,18.878,0,0,1,13.432,36h6.211a12.831,12.831,0,0,0,.874,2.069ZM13.432,28a18.878,18.878,0,0,1,2.712-6.442l4.373,4.373A12.755,12.755,0,0,0,19.643,28Z"/><path d="M32,41a9,9,0,1,0-9-9A9.01,9.01,0,0,0,32,41Zm0-16a7,7,0,1,1-7,7A7.008,7.008,0,0,1,32,25Z"/></svg>