<svg xmlns="http://www.w3.org/2000/svg" xmlns:xlink="http://www.w3.org/1999/xlink" xml:space="preserve" style="shape-rendering:geometricPrecision;text-rendering:geometricPrecision;image-rendering:optimizeQuality;" viewBox="0 0 1.70666 2.133325" x="0px" y="0px" fill-rule="evenodd" clip-rule="evenodd"><defs><style type="text/css">
   
    .fil0 {fill:black}
    .fil1 {fill:black;fill-rule:nonzero}
   
  </style></defs><g><path class="fil0" d="M0.985339 0.732409c-0.0518701,0.0232992 -0.0967992,0.0311181 -0.158185,0.0311181 -0.143469,0 -0.269654,-0.102874 -0.269654,-0.272256 0,-0.176327 0.127925,-0.329319 0.323244,-0.329319 0.152126,0 0.261016,0.104575 0.261016,0.249795 0,0.126173 -0.0708661,0.205697 -0.164217,0.205697 -0.0406142,0 -0.0700039,-0.020748 -0.0743189,-0.066563l-0.00173228 -7.87402e-006c-0.0267835,0.0440827 -0.0656772,0.066563 -0.111492,0.066563 -0.0561693,0 -0.0967992,-0.0414961 -0.0967992,-0.112343 0,-0.105457 0.0777913,-0.20139 0.202244,-0.20139 0.0380236,0 0.0812402,0.00950787 0.102854,0.0216181l-0.0259213 0.159882c-0.0086378,0.0510039 -0.00258268,0.0743346 0.0215984,0.0752047 0.0371614,0.000870079 0.0838425,-0.0466496 0.0838425,-0.146051 0,-0.112362 -0.0726024,-0.199657 -0.206563,-0.199657 -0.132228,0 -0.248055,0.103701 -0.248055,0.268803 0,0.144319 0.0924803,0.226409 0.221272,0.226409 0.0440787,0 0.090748,-0.00947244 0.125323,-0.0276654l0.0155433 0.0501614zm-0.0769213 -0.356972c-0.0069252,-0.00173228 -0.015563,-0.00345276 -0.0268031,-0.00345276 -0.0570433,0 -0.101992,0.0561929 -0.101992,0.122752 0,0.0328228 0.0146929,0.0535551 0.0432087,0.0535551 0.0319724,0 0.0656811,-0.0405945 0.0734567,-0.0907283l0.0121299 -0.082126z"/><g><g><path class="fil1" d="M1.57048 1.6961c0.0146142,0.0142126 0.0379921,0.0138898 0.0522047,-0.000724409 0.0142126,-0.0146102 0.0138898,-0.0379921 -0.000720472,-0.0522008l-0.383898 -0.373913c-0.0146142,-0.0142126 -0.0379921,-0.0138898 -0.0522047,0.000720472 -0.0142087,0.0146142 -0.0138898,0.0379921 0.000724409,0.0522047l0.383894 0.373913z"/><path class="fil1" d="M0.0910787 1.64289c-0.0147717,0.0140512 -0.0153504,0.0374291 -0.00129921,0.0522008 0.0140512,0.0147756 0.0374291,0.0153504 0.0522047,0.00129921l0.393276 -0.373913c0.0147756,-0.0140512 0.0153504,-0.0374291 0.00129921,-0.0522047 -0.0140512,-0.0147717 -0.0374291,-0.0153465 -0.0522047,-0.00129528l-0.393276 0.373913z"/><path class="fil1" d="M0.147445 0.685902c0,-0.0204409 -0.0165827,-0.0370197 -0.0370236,-0.0370197 -0.0204409,0 -0.0370197,0.0165787 -0.0370197,0.0370197l0 0.983736c0,0.0204409 0.0165787,0.0370236 0.0370197,0.0370236l1.48582 0c0.0204409,0 0.0370197,-0.0165827 0.0370197,-0.0370236l0 -0.983736c0,-0.0204409 -0.0165787,-0.0370197 -0.0370197,-0.0370197 -0.0204409,0 -0.0370236,0.0165787 -0.0370236,0.0370197l0 0.946717 -1.41177 0 0 -0.946717z"/><path class="fil1" d="M0.448961 0.452559c0.015811,-0.0128504 0.0182008,-0.0361024 0.00534646,-0.0519134 -0.0128543,-0.015811 -0.0361063,-0.0182008 -0.0519173,-0.00534646l-0.315244 0.255028c-0.00903543,0.00731102 -0.0137244,0.0179961 -0.0137323,0.0287756l0 0.0098622c0,0.0126732 0.00637008,0.0238622 0.0160866,0.0305315l0.740547 0.599642c0.0146181,0.0118346 0.0355433,0.0107047 0.0488031,-0.00194094l0.740681 -0.599461c0.00902362,-0.00730315 0.0137165,-0.0179921 0.0137205,-0.0287717l7.87402e-006 -0.0098622c0,-0.0126693 -0.00637008,-0.0238583 -0.0160866,-0.0305276l-0.320913 -0.259791c-0.015811,-0.0128543 -0.0390591,-0.0104685 -0.0519134,0.00534252 -0.0128543,0.015811 -0.0104646,0.039063 0.00534646,0.0519173l0.293988 0.237992 -0.690343 0.55885 -0.690339 -0.55885 0.285961 -0.231476z"/></g><path class="fil1" d="M1.23834 0.462756c0,-0.107343 -0.0435118,-0.204528 -0.113854,-0.274866 -0.0703386,-0.0703425 -0.167524,-0.113854 -0.274866,-0.113854 -0.107346,0 -0.204531,0.0435118 -0.274866,0.113854 -0.0703425,0.0703386 -0.113854,0.167524 -0.113854,0.274866 0,0.107339 0.0435118,0.204531 0.113854,0.274866 0.0703346,0.0703425 0.16752,0.113854 0.274866,0.113854 0.107343,0 0.204528,-0.0435118 0.274866,-0.113854 0.0703425,-0.0703346 0.113854,-0.167528 0.113854,-0.274866zm-0.0615039 -0.327217c0.0837441,0.0837402 0.135543,0.199433 0.135543,0.327217 0,0.12778 -0.0517992,0.24348 -0.135543,0.327217 -0.0837402,0.0837441 -0.199433,0.135547 -0.327217,0.135547 -0.127787,0 -0.24348,-0.0518031 -0.327217,-0.135547 -0.0837441,-0.0837362 -0.135547,-0.199437 -0.135547,-0.327217 0,-0.127783 0.0518031,-0.243476 0.135547,-0.327217 0.0837362,-0.0837441 0.199429,-0.135543 0.327217,-0.135543 0.127783,0 0.243476,0.0517992 0.327217,0.135543z"/></g></g></svg>