<svg xmlns:dc="http://purl.org/dc/elements/1.1/" xmlns:cc="http://creativecommons.org/ns#" xmlns:rdf="http://www.w3.org/1999/02/22-rdf-syntax-ns#" xmlns:svg="http://www.w3.org/2000/svg" xmlns="http://www.w3.org/2000/svg" xmlns:sodipodi="http://sodipodi.sourceforge.net/DTD/sodipodi-0.dtd" xmlns:inkscape="http://www.inkscape.org/namespaces/inkscape" version="1.1" x="0px" y="0px" viewBox="0 0 100 125"><g transform="translate(0,-952.36218)"><path d="m 54.77315,969.05759 a 1.0001,1.0001 0 0 1 1,1 l 0,7.63844 a 1.0001,1.0001 0 0 1 -1,1 l -4.5319,0 0,6.73719 24.3241,0 a 1.0001,1.0001 0 0 1 1,1 l 0,4.65625 5.6403,0 a 1.0001,1.0001 0 0 1 1,1 l 0,16.62563 4.8556,0 0,-7.4897 a 1.0001,1.0001 0 0 1 1,-1 l 3.9391,0 a 1.0001,1.0001 0 0 1 1,1 l 0,16.9794 a 1.0001,1.0001 0 0 1 -1,1 l -3.9391,0 a 1.0001,1.0001 0 0 1 -1,-1 l 0,-7.4897 -4.8556,0 0,18.2957 a 1.0001,1.0001 0 0 1 -1,1 l -28.0634,0 -0.95,4.8485 a 1.0001,1.0001 0 0 1 -0.9813,0.8075 l -25.0766,0 a 1.0001,1.0001 0 0 1 -1,-0.9882 l -0.2143,-18.2104 -8.3004,0 0,4.5375 a 1.0001,1.0001 0 0 1 -1,1 l -7.62,0 a 1.0001,1.0001 0 0 1 -1,-1 l 0,-18.455 a 1.0001,1.0001 0 0 1 1,-1 l 7.62,0 a 1.0001,1.0001 0 0 1 1,1 l 0,4.5375 8.1913,0 -0.1716,-14.98716 a 1.0001,1.0001 0 0 1 1,-1.01157 l 5.6403,0 0,-4.65625 a 1.0001,1.0001 0 0 1 1,-1 l 8.5894,0 0,-6.73719 -4.5318,0 a 1.0001,1.0001 0 0 1 -1,-1 l 0,-7.63844 a 1.0001,1.0001 0 0 1 1,-1 l 18.4359,0 z m -1,2 -16.4359,0 0,5.63844 4.5318,0 a 1.0001,1.0001 0 0 1 1,1 l 0,8.73719 a 1.0001,1.0001 0 0 1 -1,1 l -8.5894,0 0,4.65625 a 1.0001,1.0001 0 0 1 -1,1 l -5.6287,0 0.1713,14.98753 a 1.0001,1.0001 0 0 1 -1,1.0112 l -10.2026,0 a 1.0001,1.0001 0 0 1 -1,-1 l 0,-4.5375 -5.62,0 0,16.455 5.62,0 0,-4.5375 a 1.0001,1.0001 0 0 1 1,-1 l 10.2888,0 a 1.0001,1.0001 0 0 1 1,0.9881 l 0.2144,18.2105 23.265,0 0.9503,-4.8485 a 1.0001,1.0001 0 0 1 0.9812,-0.8075 l 27.8863,0 0,-18.2957 0,-0.2156 0,-16.41003 -5.6403,0 a 1.0001,1.0001 0 0 1 -1,-1 l 0,-4.65625 -24.3241,0 a 1.0001,1.0001 0 0 1 -1,-1 l 0,-8.73719 a 1.0001,1.0001 0 0 1 1,-1 l 4.5319,0 0,-5.63844 z m 37.2272,31.16781 -1.9391,0 0,7.0125 a 1.0001,1.0001 0 0 1 0,0.9541 l 0,7.0128 1.9391,0 0,-14.9794 z" style="text-indent:0;text-transform:none;direction:ltr;block-progression:tb;baseline-shift:baseline;color:#000000;enable-background:accumulate;" fill="#000000" fill-opacity="1" fill-rule="evenodd" stroke="none" marker="none" visibility="visible" display="inline" overflow="visible"/></g></svg>