<svg xmlns="http://www.w3.org/2000/svg" xmlns:xlink="http://www.w3.org/1999/xlink" version="1.1" baseProfile="basic" x="0px" y="0px" viewBox="0 0 90 112.5" xml:space="preserve"><path d="M69.315,90.026C55.681,90.028,38.46,79.081,24.689,65.311C6.015,46.638-7.468,21.613,4.506,7.8  C5.267,6.922,6.24,6.248,7.397,5.794c1.428-0.56,4.015-1.651,7.687-3.244l0.008-0.003c1.707-0.74,3.346-1.458,4.599-2.009  c2.946-1.292,6.401-0.181,8.045,2.587l10.407,17.539c1.134,1.91,1.186,4.313,0.135,6.271L32.043,38.55L51.45,57.957l11.613-6.235  c1.962-1.052,4.364-0.998,6.272,0.135l16.293,9.668l2.157,1.395l0,0c2.086,1.799,2.815,4.794,1.676,7.39  c-0.469,1.064-1.057,2.406-1.676,3.831l0.756-1.735l-1.127,2.589c-1.548,3.571-2.657,6.2-3.21,7.61  c-0.453,1.156-1.128,2.129-2.004,2.89C78.574,88.638,74.171,90.026,69.315,90.026z M17.98,8.925L17.98,8.925  c-3.807,1.651-6.508,2.791-8.028,3.387C9.828,12.36,9.781,12.4,9.781,12.4c-8.562,9.878,3.505,31.608,19.858,47.961  c16.353,16.352,38.079,28.418,47.974,19.846h-0.001c-0.002,0,0.033-0.049,0.076-0.157c0.602-1.534,1.741-4.235,3.388-8.031  l1.745-4.021l-16.755-9.942l-11.711,6.287c-2.5,1.341-5.524,0.893-7.527-1.11l-20.06-20.06c-2.004-2.005-2.451-5.03-1.11-7.527  l6.287-11.711L21.997,7.171C20.843,7.678,19.438,8.292,17.98,8.925z"/></svg>