<svg xmlns="http://www.w3.org/2000/svg" viewBox="0 0 64 80" x="0px" y="0px"><title>Rims</title><g><path d="M32,4A28,28,0,1,0,60,32,28.0314,28.0314,0,0,0,32,4Zm0,54A26,26,0,1,1,58,32,26.0289,26.0289,0,0,1,32,58ZM55.6445,27.9023a.9417.9417,0,0,0-.0479-.12.9586.9586,0,0,0-.0292-.1218c-.0106-.0229-.0308-.0368-.0428-.0585a1.3813,1.3813,0,0,0-.251-.2976,1.4628,1.4628,0,0,0-.3338-.1731,1.39,1.39,0,0,0-.3833-.0338c-.0252.0027-.0488-.0061-.0741-.0015a.893.893,0,0,1-.2422.0772l-14.33,6.63a.9988.9988,0,0,0-.4532,1.3946l7.69,13.78a.9859.9859,0,0,0,.1421.1891c.0053.0058.0067.0133.0122.0189l.0043.003a.9829.9829,0,0,0,.2946.201c.0273.0127.0534.0235.0816.0336a.9961.9961,0,0,0,.3363.0668l.0019,0h.001a.9949.9949,0,0,0,.3241-.062c.0278-.01.0535-.02.0806-.0323s.0553-.018.0816-.0326a.9467.9467,0,0,0,.0956-.0817.9358.9358,0,0,0,.1124-.0726A23.7415,23.7415,0,0,0,56,32,23.17,23.17,0,0,0,55.6445,27.9023ZM48.2259,46.8082,41.7285,35.165l12.12-5.6076a21.5767,21.5767,0,0,1-5.6221,17.2508ZM43.71,52.5015a.7154.7154,0,0,0-.0089-.368.9633.9633,0,0,0-.0587-.1966c-.01-.0215-.0084-.0447-.02-.0658a.9459.9459,0,0,1-.1494-.2109l-10.74-11.58a1.0315,1.0315,0,0,0-1.4668,0l-10.74,11.58a.9369.9369,0,0,0-.0686.1121.95.95,0,0,0-.0808.0988c-.0113.0211-.01.0443-.02.0658a1.4362,1.4362,0,0,0-.0871.379.9874.9874,0,0,0,.02.1858,1.0818,1.0818,0,0,0,.2491.5142c.0165.0177.0233.0406.0413.0573a.9373.9373,0,0,0,.1126.0689.9426.9426,0,0,0,.0983.0806,24.008,24.008,0,0,0,22.418,0,.9416.9416,0,0,0,.0907-.0744.9169.9169,0,0,0,.12-.0751c.018-.0166.0247-.04.0412-.0572a.9536.9536,0,0,0,.12-.1664.7217.7217,0,0,0,.1294-.3481Zm-20.8047-.4657L32,42.2305l9.0944,9.8053a22.036,22.036,0,0,1-18.1888,0ZM10.38,21.9369a1.1145,1.1145,0,0,0,.1939.525.97.97,0,0,0,.1275.1281.9593.9593,0,0,0,.1649.1267c.02.0116.0324.0308.0534.0411a.9632.9632,0,0,0,.1031.0241.9538.9538,0,0,0,.144.06l15.4893,3.05a1.0015,1.0015,0,0,0,1.1865-.8623l1.8808-15.67a.9178.9178,0,0,0-.0105-.1307.9424.9424,0,0,0,.0076-.1281c-.0034-.0241-.0182-.0426-.0232-.066a.9614.9614,0,0,0-.0665-.1895.9759.9759,0,0,0-.087-.17.957.957,0,0,0-.1165-.13.7178.7178,0,0,0-.3054-.2081.9452.9452,0,0,0-.2093-.0693c-.0224-.0042-.04-.018-.0632-.0208a.9463.9463,0,0,1-.2588.0029A23.91,23.91,0,0,0,10.4629,21.42a.9339.9339,0,0,0-.0316.12.9561.9561,0,0,0-.0524.1271c-.0048.0242.0033.0467,0,.0708A.96.96,0,0,0,10.38,21.9369Zm17.1972-11.483-1.592,13.2668-13.1122-2.582A21.9077,21.9077,0,0,1,27.5774,10.4539ZM32,35a3,3,0,1,0-3-3A3.0033,3.0033,0,0,0,32,35Zm0-4a1,1,0,1,1-1,1A1.0006,1.0006,0,0,1,32,31Zm4.1572-5.9707a1.0018,1.0018,0,0,0,1.1866.8623l15.4892-3.05a.7965.7965,0,0,1,.2471-.084c.021-.01.0334-.0295.0534-.0411a.9593.9593,0,0,0,.1649-.1267.97.97,0,0,0,.1275-.1281.8779.8779,0,0,0,.1939-.525.96.96,0,0,0,.0009-.1991c-.0029-.0241.0052-.0466,0-.0708a.9337.9337,0,0,0-.0524-.1268.9263.9263,0,0,0-.0316-.12A23.91,23.91,0,0,0,35.4092,8.25a.9576.9576,0,0,1-.2588-.0029c-.0226.0027-.04.0164-.0622.0205a.9538.9538,0,0,0-.2091.0692,1.0429,1.0429,0,0,0-.5767.6981c-.005.0233-.02.0417-.0231.0657a.9424.9424,0,0,0,.0076.1281.9178.9178,0,0,0-.0105.1307Zm14.97-3.8906-13.1122,2.582-1.592-13.2668A21.9077,21.9077,0,0,1,51.1268,21.1387ZM24.543,35.1973a.9988.9988,0,0,0-.4532-1.3946l-14.33-6.63a.9293.9293,0,0,0-.122-.0294.94.94,0,0,0-.12-.0478c-.0247-.0045-.0478.0041-.0723.0015a.9511.9511,0,0,0-.2046.0041.7415.7415,0,0,0-.3578.1076.7371.7371,0,0,0-.2881.23.9564.9564,0,0,0-.12.1634c-.0119.0215-.0321.0354-.0426.0581a.8842.8842,0,0,1-.0771.2421A23.17,23.17,0,0,0,8,32a23.7415,23.7415,0,0,0,7.2852,17.209.9358.9358,0,0,0,.1124.0726.9467.9467,0,0,0,.0956.0817c.0263.0146.0547.0206.0816.0326s.0528.0227.0806.0323a.9949.9949,0,0,0,.3241.062h.001l.0019,0a.9961.9961,0,0,0,.3363-.0668c.0282-.01.0543-.0209.0816-.0336a.9829.9829,0,0,0,.2946-.201l.0043-.003c.0055-.0056.0069-.0131.0122-.0189a.9859.9859,0,0,0,.1421-.1891Zm-14.391-5.64,12.12,5.6076L15.7741,46.8082A21.5767,21.5767,0,0,1,10.152,29.5574ZM31,25a1,1,0,1,1,1,1A1,1,0,0,1,31,25Zm-5.3484,3.8858a1,1,0,1,1-1.26.642A1,1,0,0,1,25.6516,28.8858Zm2.8217,7.9683a1,1,0,1,1-1.3968.2212A1,1,0,0,1,28.4733,36.8541Zm8.45.2212a1,1,0,1,1-1.3968-.2212A1,1,0,0,1,36.9235,37.0753Zm2.685-7.5475a1,1,0,1,1-1.26-.642A1,1,0,0,1,39.6085,29.5278Z"/></g></svg>