<svg xmlns="http://www.w3.org/2000/svg" viewBox="0 0 36 45" x="0px" y="0px"><title>Монтажная область 75</title><path d="M24,35H12.05a5.88,5.88,0,0,1-4.57-2.11,5.15,5.15,0,0,1-1.1-4.28L8.51,17.94a5.53,5.53,0,0,1,4.13-4.2v-2.3A5.35,5.35,0,0,1,14.43,1h7.14a5.35,5.35,0,0,1,1.79,10.4v2.3a5.53,5.53,0,0,1,4.13,4.2l2.13,10.63a5.15,5.15,0,0,1-1.1,4.28h0A5.88,5.88,0,0,1,24,35ZM14.43,2.82a3.57,3.57,0,0,0-.71,7.07.9.9,0,0,1,.71.88v3.71a.9.9,0,0,1-.79.89,3.82,3.82,0,0,0-3.38,2.92L8.13,28.92a3.39,3.39,0,0,0,.73,2.8,4.08,4.08,0,0,0,3.19,1.46H24a4.08,4.08,0,0,0,3.19-1.46h0a3.39,3.39,0,0,0,.73-2.8L25.74,18.29a3.82,3.82,0,0,0-3.38-2.92.9.9,0,0,1-.79-.89V10.77a.9.9,0,0,1,.71-.88,3.57,3.57,0,0,0-.71-7.07Zm13.4,29.47h0Z"/></svg>